# xmcd CD database file
#
# Track frame offsets:
#	150
#	13279
#	34371
#	49122
#	65049
#	77138
#	90342
#	105299
#	117169
#	130520
#
# Disc length: 1916 seconds
#
# Revision: 2
# Processed by: cddbd v1.5.2PL0 Copyright (c) Steve Scherf et al.
# Submitted via: CDex 1.70beta2
#
DISCID=7a077a0a
DTITLE=Various Artist - Best of Country - Disk 1
DYEAR=2008
DGENRE=Country
TTITLE0=Crystal Gayle - Don't It Make My Brown Eyes Blue
TTITLE1=Tanya Tucker - My Arms Stay Open
TTITLE2=Mickey Gilley - Stand By Me
TTITLE3=Pam Tillis - Mi Vida Loco
TTITLE4=Freddy Fender - Before the Next Teardrop Falls
TTITLE5=Lynn Anderson - Rose Garden
TTITLE6=Asleep at tthe Wheel - Get Your Kicks on Route 66
TTITLE7=Poco - Crazy Love
TTITLE8=BJ Thomas - Raindrops Keep Fallin'
TTITLE9=Crystal Gayle - Talking in Your Sleep
EXTD=YEAR: 2008
EXTT0=
EXTT1=
EXTT2=
EXTT3=
EXTT4=
EXTT5=
EXTT6=
EXTT7=
EXTT8=
EXTT9=
PLAYORDER=
